<svg viewBox="0 0 12 12" fill="none" xmlns="http://www.w3.org/2000/svg">
<path fill-rule="evenodd" clip-rule="evenodd" d="M3.6 12C1.61178 12 0 10.3882 0 8.4V3.6C0 1.61178 1.61178 0 3.6 0H8.4C10.3882 0 12 1.61178 12 3.6V8.4C12 10.3882 10.3882 12 8.4 12H3.6ZM8.4 11H3.6C2.16406 11 1 9.83594 1 8.4V3.6C1 2.16406 2.16406 1 3.6 1H8.4C9.83594 1 11 2.16406 11 3.6V8.4C11 9.83594 9.83594 11 8.4 11Z" fill="currentColor"/>
<path d="M5.5 3.70718L3.52513 5.68206L2.81802 4.97495L4.93934 2.85363C5.52513 2.26784 6.47487 2.26784 7.06066 2.85363L9.18198 4.97495L8.47487 5.68206L6.5 3.70718V9.50001H5.5V3.70718Z" fill="currentColor"/>
</svg>
