<svg preserveAspectRatio="none" width="100%" height="100%" overflow="visible" style="display: block;" viewBox="0 0 12 12" fill="none" xmlns="http://www.w3.org/2000/svg">
<g id="Union">
<path d="M5.02246 4.35352L3.49414 5.88184C3.42905 5.94692 3.42905 6.05308 3.49414 6.11816L5.02246 7.64648L4.31543 8.35352L2.78711 6.8252C2.3315 6.36958 2.3315 5.63042 2.78711 5.1748L4.31543 3.64648L5.02246 4.35352Z" fill="currentColor"/>
<path d="M9.21484 5.1748C9.67045 5.63042 9.67046 6.36958 9.21484 6.8252L7.68652 8.35352L6.97949 7.64648L8.50781 6.11816C8.5729 6.05308 8.5729 5.94692 8.50781 5.88184L6.97949 4.35352L7.68652 3.64648L9.21484 5.1748Z" fill="currentColor"/>
<path fill-rule="evenodd" clip-rule="evenodd" d="M8.58496 0.00488281C10.4871 0.101154 11.9998 1.6736 12 3.59961V8.40039L11.9951 8.58496C11.9019 10.426 10.426 11.9019 8.58496 11.9951L8.40039 12H3.59961L3.41504 11.9951C1.57404 11.9019 0.0980593 10.426 0.00488281 8.58496L0 8.40039V3.59961C0.000204581 1.6736 1.5129 0.101154 3.41504 0.00488281L3.59961 0H8.40039L8.58496 0.00488281ZM3.59961 1C2.16398 1.00021 1.00021 2.16398 1 3.59961V8.40039C1.00021 9.83602 2.16398 10.9998 3.59961 11H8.40039C9.83602 10.9998 10.9998 9.83602 11 8.40039V3.59961C10.9998 2.16398 9.83602 1.00021 8.40039 1H3.59961Z" fill="currentColor"/>
</g>
</svg>
