<svg preserveAspectRatio="none" width="100%" height="100%" overflow="visible" style="display: block;" viewBox="0 0 10 12" fill="none" xmlns="http://www.w3.org/2000/svg">
<g id="Union">
<path d="M6.60742 6.30371C6.80336 6.30371 6.96269 6.46329 6.96289 6.65918C6.96264 6.85503 6.80333 7.01367 6.60742 7.01367H3.35547C3.15956 7.01367 3.00025 6.85503 3 6.65918C3.0002 6.46329 3.15953 6.30371 3.35547 6.30371H6.60742Z" fill="currentColor"/>
<path d="M5.05762 3.3584C5.05762 3.12754 5.30785 2.98338 5.50781 3.09863L6.98828 3.95312C7.18828 4.0686 7.18828 4.35719 6.98828 4.47266L5.50781 5.32812C5.30786 5.44337 5.05766 5.29918 5.05762 5.06836V3.3584Z" fill="currentColor"/>
<path d="M4.08398 4.65039C4.27845 4.65065 4.4363 4.80845 4.43652 5.00293C4.43652 5.1976 4.27859 5.35619 4.08398 5.35645H3.37793C3.18321 5.35632 3.02539 5.19768 3.02539 5.00293C3.02561 4.80837 3.18334 4.65051 3.37793 4.65039H4.08398Z" fill="currentColor"/>
<path d="M4.08398 3C4.27859 3.00026 4.43652 3.15787 4.43652 3.35254C4.4364 3.5471 4.27852 3.70482 4.08398 3.70508H3.37793C3.18328 3.70496 3.02551 3.54719 3.02539 3.35254C3.02539 3.15779 3.18321 3.00012 3.37793 3H4.08398Z" fill="currentColor"/>
<path fill-rule="evenodd" clip-rule="evenodd" d="M8 0C9.10457 0 10 0.895431 10 2V11C10 11.5177 9.60667 11.9438 9.10254 11.9951L9 12H1C0.482323 12 0.0562145 11.6067 0.00488281 11.1025L0 11V2C1.28853e-07 0.895431 0.895431 1.61064e-08 2 0H8ZM1.5 10C1.22386 10 1 10.2239 1 10.5C1 10.7761 1.22386 11 1.5 11H9V10H1.5ZM2 1C1.44772 1 1 1.44772 1 2V9.08691C1.15653 9.03153 1.3245 9 1.5 9H9V2C9 1.44772 8.55228 1 8 1H2Z" fill="currentColor"/>
</g>
</svg>
