<svg viewBox="0 0 12 12" fill="none" xmlns="http://www.w3.org/2000/svg">
<g>
<path d="M6.66699 9.33301H5.33301V5.33301H6.66699V9.33301Z" fill="currentColor"/>
<path d="M6.66699 4H5.33301V2.66699H6.66699V4Z" fill="currentColor"/>
<path fill-rule="evenodd" clip-rule="evenodd" d="M8.40039 0C10.3883 0.000211285 11.9998 1.61169 12 3.59961V8.40039C11.9998 10.3883 10.3883 11.9998 8.40039 12H3.59961C1.61169 11.9998 0.000211285 10.3883 0 8.40039V3.59961C0.000211156 1.61169 1.61169 0.000211157 3.59961 0H8.40039ZM3.59961 1C2.16398 1.00021 1.00021 2.16398 1 3.59961V8.40039C1.00021 9.83602 2.16398 10.9998 3.59961 11H8.40039C9.83602 10.9998 10.9998 9.83602 11 8.40039V3.59961C10.9998 2.16398 9.83602 1.00021 8.40039 1H3.59961Z" fill="currentColor"/>
</g>
</svg>
