<svg preserveAspectRatio="none" width="100%" height="100%" overflow="visible" style="display: block;" viewBox="0 0 16 10.6667" fill="none" xmlns="http://www.w3.org/2000/svg">
<path id="Vector (Stroke)" fill-rule="evenodd" clip-rule="evenodd" d="M12.0616 4.97744L11.9126 4.22129C11.5504 2.38359 9.93634 1.00641 8 1.00641C6.46372 1.00641 5.1264 1.87733 4.45926 3.15823L4.20989 3.63703L3.67306 3.6941C2.17387 3.85349 1.00641 5.1256 1.00641 6.66667C1.00641 8.31751 2.34916 9.66026 4 9.66026H12.6667C13.9508 9.66026 14.9936 8.61751 14.9936 7.33333C14.9936 6.1124 14.0465 5.11486 12.8305 5.03067L12.0616 4.97744ZM8 0C10.4267 0 12.4467 1.72667 12.9 4.02667C14.6333 4.14667 16 5.57333 16 7.33333C16 9.17333 14.5067 10.6667 12.6667 10.6667H4C1.79333 10.6667 0 8.87333 0 6.66667C0 4.60667 1.56 2.90667 3.56667 2.69333C4.4 1.09333 6.07333 0 8 0Z" fill="currentColor"/>
</svg>
