<svg preserveAspectRatio="none" width="100%" height="100%" overflow="visible" style="display: block;" viewBox="0 0 12 11" fill="none" xmlns="http://www.w3.org/2000/svg">
<g id="Union">
<path fill-rule="evenodd" clip-rule="evenodd" d="M2 8C2.55228 8 3 8.44772 3 9V10C3 10.5523 2.55228 11 2 11H1L0.897461 10.9951C0.393331 10.9438 0 10.5177 0 10V9C0 8.44772 0.447715 8 1 8H2ZM1 10H2V9H1V10Z" fill="currentColor"/>
<path fill-rule="evenodd" clip-rule="evenodd" d="M11 8C11.5523 8 12 8.44772 12 9V10C12 10.5523 11.5523 11 11 11H5C4.44772 11 4 10.5523 4 10V9C4 8.44772 4.44772 8 5 8H11ZM5 10H11V9H5V10Z" fill="currentColor"/>
<path fill-rule="evenodd" clip-rule="evenodd" d="M2 4C2.55228 4 3 4.44772 3 5V6C3 6.55228 2.55228 7 2 7H1L0.897461 6.99512C0.393331 6.94379 0 6.51768 0 6V5C0 4.44772 0.447715 4 1 4H2ZM1 6H2V5H1V6Z" fill="currentColor"/>
<path fill-rule="evenodd" clip-rule="evenodd" d="M11 4C11.5523 4 12 4.44772 12 5V6C12 6.55228 11.5523 7 11 7H5C4.44772 7 4 6.55228 4 6V5C4 4.44772 4.44772 4 5 4H11ZM5 6H11V5H5V6Z" fill="currentColor"/>
<path fill-rule="evenodd" clip-rule="evenodd" d="M2 0C2.55228 0 3 0.447715 3 1V2C3 2.55228 2.55228 3 2 3H1L0.897461 2.99512C0.393331 2.94379 0 2.51768 0 2V1C0 0.447715 0.447715 0 1 0H2ZM1 2H2V1H1V2Z" fill="currentColor"/>
<path fill-rule="evenodd" clip-rule="evenodd" d="M11 0C11.5523 0 12 0.447715 12 1V2C12 2.55228 11.5523 3 11 3H5C4.44772 3 4 2.55228 4 2V1C4 0.447715 4.44772 0 5 0H11ZM5 2H11V1H5V2Z" fill="currentColor"/>
</g>
</svg>
