<svg preserveAspectRatio="none" width="100%" height="100%" overflow="visible" style="display: block;" viewBox="0 0 12 12" fill="none" xmlns="http://www.w3.org/2000/svg">
<g id="Vector">
<path fill-rule="evenodd" clip-rule="evenodd" d="M5.55217 4.79058V7.20942L7.26522 6L5.55217 4.79058ZM4.5 4.315C4.5 3.65679 5.23462 3.27103 5.76926 3.64849L8.15593 5.33348C8.61469 5.65737 8.61469 6.34263 8.15593 6.66652L5.76926 8.35151C5.23462 8.72897 4.5 8.34321 4.5 7.685V4.315Z" fill="currentColor"/>
<path fill-rule="evenodd" clip-rule="evenodd" d="M8.40039 0C10.3883 0.000211285 11.9998 1.61169 12 3.59961V8.40039C11.9998 10.3883 10.3883 11.9998 8.40039 12H3.59961C1.61169 11.9998 0.000211285 10.3883 0 8.40039V3.59961C0.000211156 1.61169 1.61169 0.000211157 3.59961 0H8.40039ZM3.59961 1C2.16398 1.00021 1.00021 2.16398 1 3.59961V8.40039C1.00021 9.83602 2.16398 10.9998 3.59961 11H8.40039C9.83602 10.9998 10.9998 9.83602 11 8.40039V3.59961C10.9998 2.16398 9.83602 1.00021 8.40039 1H3.59961Z" fill="currentColor"/>
</g>
</svg>
