<svg preserveAspectRatio="none" width="100%" height="100%" overflow="visible" style="display: block;" viewBox="0 0 12 12" fill="none" xmlns="http://www.w3.org/2000/svg">
<path id="Union" fill-rule="evenodd" clip-rule="evenodd" d="M11.1025 0.00488281C11.6067 0.0562144 12 0.482323 12 1V2L11.9951 2.10254C11.9472 2.57297 11.573 2.94722 11.1025 2.99512L11 3H10L9.89746 2.99512C9.52507 2.9572 9.21581 2.7136 9.07812 2.38086L3 5.63281V6.3584L9.08105 9.61133C9.22034 9.28256 9.52796 9.04251 9.89746 9.00488L10 9H11L11.1025 9.00488C11.573 9.05278 11.9472 9.42703 11.9951 9.89746L12 10V11C12 11.5177 11.6067 11.9438 11.1025 11.9951L11 12H10L9.89746 11.9951C9.39333 11.9438 9 11.5177 9 11V10.7178L2.60059 7.2959C2.45862 7.40321 2.28912 7.47612 2.10254 7.49512L2 7.5H1L0.897461 7.49512C0.427034 7.44722 0.0527828 7.07297 0.00488281 6.60254L0 6.5V5.5C0 4.98232 0.393331 4.55621 0.897461 4.50488L1 4.5H2L2.10254 4.50488C2.29222 4.5242 2.46611 4.59669 2.60938 4.70703L9 1.28906V1C9 0.482323 9.39333 0.0562144 9.89746 0.00488281L10 0H11L11.1025 0.00488281ZM10 11H11V10H10V11ZM1 6.5H2V5.5H1V6.5ZM10 2H11V1H10V2Z" fill="currentColor"/>
</svg>
