<svg viewBox="0 0 12 12.0376" fill="none" xmlns="http://www.w3.org/2000/svg">
<path fill-rule="evenodd" clip-rule="evenodd" d="M8.8 1H3.2C1.98497 1 1 1.98497 1 3.2V6.13333C1 7.34836 1.98497 8.33333 3.2 8.33333H3.92451C4.32261 8.33333 4.69151 8.54221 4.89633 8.88357L6 10.723L7.10367 8.88357C7.30849 8.5422 7.6774 8.33333 8.07549 8.33333H8.8C10.015 8.33333 11 7.34836 11 6.13333V3.2C11 1.98497 10.015 1 8.8 1ZM3.2 0C1.43269 0 0 1.43269 0 3.2V6.13333C0 7.90065 1.43269 9.33333 3.2 9.33333H3.92451C3.97134 9.33333 4.01474 9.35791 4.03884 9.39807L5.42834 11.7139C5.68727 12.1455 6.31273 12.1455 6.57166 11.7139L7.96116 9.39807C7.98526 9.35791 8.02866 9.33333 8.07549 9.33333H8.8C10.5673 9.33333 12 7.90064 12 6.13333V3.2C12 1.43269 10.5673 0 8.8 0H3.2Z" fill="currentColor"/>
</svg>
