<svg preserveAspectRatio="none" width="100%" height="100%" overflow="visible" style="display: block;" viewBox="0 0 11 11.0001" fill="none" xmlns="http://www.w3.org/2000/svg">
<g id="Vector">
<path fill-rule="evenodd" clip-rule="evenodd" d="M0 3.81257C0 3.26029 0.447715 2.81257 1 2.81257H2.48405L4.18504 0.420547C4.4372 0.0659584 4.88969 -0.0848925 5.30417 0.0474545C5.71866 0.179801 6 0.564969 6 1.00007V10.0001C6 10.4352 5.71866 10.8203 5.30417 10.9527C4.88969 11.085 4.4372 10.9342 4.18504 10.5796L2.48405 8.18757H1C0.447715 8.18757 0 7.73986 0 7.18757V3.81257ZM3 7.18757L5 10.0001V1.00007L3 3.81257H1V7.18757H3Z" fill="currentColor"/>
<path d="M10.8536 4.35355C11.0488 4.15829 11.0488 3.84171 10.8536 3.64645C10.6583 3.45118 10.3417 3.45118 10.1464 3.64645L9 4.79289L7.85355 3.64645C7.65829 3.45118 7.34171 3.45118 7.14645 3.64645C6.95118 3.84171 6.95118 4.15829 7.14645 4.35355L8.29289 5.5L7.14645 6.64645C6.95118 6.84171 6.95118 7.15829 7.14645 7.35355C7.34171 7.54882 7.65829 7.54882 7.85355 7.35355L9 6.20711L10.1464 7.35355C10.3417 7.54882 10.6583 7.54882 10.8536 7.35355C11.0488 7.15829 11.0488 6.84171 10.8536 6.64645L9.70711 5.5L10.8536 4.35355Z" fill="currentColor"/>
</g>
</svg>
